<svg xmlns="http://www.w3.org/2000/svg" viewBox="0 0 403.4 63.9"><defs><style>.cls-1{fill:#ff6f61;}</style></defs><title>Asset 10</title><g id="Layer_2" data-name="Layer 2"><g id="Layer_2-2" data-name="Layer 2"><path class="cls-1" d="M71.5,0V59.5H52.9V29.8L43.8,59.5h-16L18.6,29.8V59.5H0V0H22.8L36,35.7,48.7,0Z"/><path class="cls-1" d="M98.1,0V33.5A10.6,10.6,0,0,0,99.9,40q1.8,2.4,5.8,2.4t6-2.4a10.1,10.1,0,0,0,1.9-6.5V0h18.6V33.5A28.1,28.1,0,0,1,128.7,48a22.6,22.6,0,0,1-9.7,9,30.5,30.5,0,0,1-13.7,3,28.7,28.7,0,0,1-13.4-3,21.5,21.5,0,0,1-9.1-9,29.8,29.8,0,0,1-3.3-14.5V0Z"/><path d="M166.1,22.8a15.9,15.9,0,0,1,5.5,9.8h-9.5a7.9,7.9,0,0,0-2.6-4.6,7.8,7.8,0,0,0-5.3-1.7,6,6,0,0,0-4,1.2,4.1,4.1,0,0,0-1.4,3.3,3.4,3.4,0,0,0,1.2,2.7,8.3,8.3,0,0,0,2.9,1.6l5,1.4a51.2,51.2,0,0,1,7.4,2.1A12.2,12.2,0,0,1,170,42a9.7,9.7,0,0,1,2.1,6.5,10.1,10.1,0,0,1-4,8.3q-4,3.2-10.8,3.2t-12.5-3.5a14.7,14.7,0,0,1-5.7-10h9.7a6.6,6.6,0,0,0,2.6,4.6,9.4,9.4,0,0,0,5.8,1.7,5.6,5.6,0,0,0,4-1.3,4.2,4.2,0,0,0,1.4-3.3,3.6,3.6,0,0,0-1.2-2.8,8,8,0,0,0-3-1.7l-5-1.4a56.2,56.2,0,0,1-7.2-2.1,11.5,11.5,0,0,1-4.8-3.3,9.4,9.4,0,0,1-2-6.3,10.4,10.4,0,0,1,4-8.4q4-3.2,10.9-3.2T166.1,22.8Z"/><path d="M216.8,41.5H187.6q.2,5.3,2.9,7.8a9.3,9.3,0,0,0,6.6,2.5,9.6,9.6,0,0,0,5.9-1.7,7.7,7.7,0,0,0,3-4.7h10.7a17.2,17.2,0,0,1-3.4,7.5,17.7,17.7,0,0,1-6.7,5.2,22.8,22.8,0,0,1-19.4-.6,17.5,17.5,0,0,1-7.1-7.1,22.3,22.3,0,0,1-2.5-10.9,22.5,22.5,0,0,1,2.5-10.9,17.2,17.2,0,0,1,7.1-7.1,21.5,21.5,0,0,1,10.4-2.4,21,21,0,0,1,10.3,2.4,17.3,17.3,0,0,1,6.8,6.7,19.5,19.5,0,0,1,2.4,9.8A19.2,19.2,0,0,1,216.8,41.5ZM204.4,29.6a9.7,9.7,0,0,0-6.8-2.5,10,10,0,0,0-6.9,2.5q-2.8,2.5-3.1,7.4h19.4Q207.1,32.1,204.4,29.6Z"/><path d="M248.6,21.5a12.9,12.9,0,0,1,5.1,6.4V19.6h10.1V59.5H253.7V51.1a13.1,13.1,0,0,1-5.1,6.4A15.2,15.2,0,0,1,240,60a17.1,17.1,0,0,1-9.1-2.4,16.5,16.5,0,0,1-6.3-7.1,24.6,24.6,0,0,1-2.3-10.9,24.6,24.6,0,0,1,2.3-10.9,16.5,16.5,0,0,1,6.3-7.1,17.1,17.1,0,0,1,9.1-2.4A15.3,15.3,0,0,1,248.6,21.5ZM235.5,31q-2.9,3.1-2.9,8.5t2.9,8.5a10.9,10.9,0,0,0,15.2-.1,11.6,11.6,0,0,0,3-8.4,11.8,11.8,0,0,0-3-8.5,10,10,0,0,0-7.6-3.1A9.9,9.9,0,0,0,235.5,31Z"/><path d="M350.9,23.3a18.3,18.3,0,0,1,6.4,11.4H346.6a8.3,8.3,0,0,0-3-5,9.1,9.1,0,0,0-5.8-1.8,8.7,8.7,0,0,0-6.7,3q-2.7,3-2.7,8.7t2.7,8.7a8.7,8.7,0,0,0,6.7,3,9.1,9.1,0,0,0,5.8-1.8,8.3,8.3,0,0,0,3-5h10.7a18.2,18.2,0,0,1-6.4,11.4A19.7,19.7,0,0,1,338,60a21.2,21.2,0,0,1-10.4-2.5,17.5,17.5,0,0,1-7.1-7.1,22.3,22.3,0,0,1-2.5-10.9,22.5,22.5,0,0,1,2.5-10.9,17.2,17.2,0,0,1,7.1-7.1A21.5,21.5,0,0,1,338,19.1,19.7,19.7,0,0,1,350.9,23.3Z"/><path d="M399.3,23.5q4.1,4.5,4.1,12.7V59.5H393.3v-22q0-4.8-2.4-7.4a8.7,8.7,0,0,0-6.7-2.6,9,9,0,0,0-6.9,2.8q-2.6,2.8-2.6,8.1V59.5H364.5V6.2h10.2V27.6a12.7,12.7,0,0,1,5.2-6.3,15.5,15.5,0,0,1,8.4-2.3A14.1,14.1,0,0,1,399.3,23.5Z"/></g><g id="Layer_1-2" data-name="Layer 1"><path d="M308.1,32.9a26,26,0,0,0-.2-12,16,16,0,0,0-4.1-7c-3.1-3.2-7.1-4.4-10.9-5.5s-5.5-1.6-7.8-3.2l-.4-.3c-1.3-.9-2.8-2-3.4-3.1A2.4,2.4,0,0,0,278.4.7a2.4,2.4,0,0,0-1.4,3l13.2,40.8a13.9,13.9,0,0,0-7.5.3c-6.3,2-10.1,7.8-8.5,12.9s8.1,7.5,14.4,5.5,10.1-7.8,8.5-12.9l-8.7-26.7a17.3,17.3,0,0,1,14.7,9,13.6,13.6,0,0,1-.5,1.5,2.4,2.4,0,0,0,4.4,1.9,17.9,17.9,0,0,0,.9-2.9Z"/></g></g></svg>